<svg width="1600" height="900" viewBox="0 0 1600 900" fill="none" xmlns="http://www.w3.org/2000/svg">
  <defs>
    <linearGradient id="bg" x1="180" y1="90" x2="1410" y2="820" gradientUnits="userSpaceOnUse">
      <stop offset="0" stop-color="#0A2342"/>
      <stop offset="0.5" stop-color="#114B74"/>
      <stop offset="1" stop-color="#1C8C7C"/>
    </linearGradient>
    <linearGradient id="pitchGlow" x1="800" y1="160" x2="800" y2="780" gradientUnits="userSpaceOnUse">
      <stop offset="0" stop-color="#7DFFD2" stop-opacity="0.32"/>
      <stop offset="1" stop-color="#7DFFD2" stop-opacity="0.05"/>
    </linearGradient>
    <linearGradient id="playerKit" x1="0" y1="0" x2="1" y2="1">
      <stop offset="0" stop-color="#F7FAFC"/>
      <stop offset="1" stop-color="#CBD5E1"/>
    </linearGradient>
    <linearGradient id="playerAccent" x1="0" y1="0" x2="1" y2="1">
      <stop offset="0" stop-color="#2DD4BF"/>
      <stop offset="1" stop-color="#0EA5E9"/>
    </linearGradient>
    <filter id="softShadow" x="-20%" y="-20%" width="140%" height="140%">
      <feDropShadow dx="0" dy="18" stdDeviation="18" flood-color="#06111F" flood-opacity="0.28"/>
    </filter>
  </defs>

  <rect width="1600" height="900" rx="40" fill="url(#bg)"/>
  <circle cx="1290" cy="135" r="190" fill="#7DFFD2" fill-opacity="0.08"/>
  <circle cx="260" cy="760" r="250" fill="#38BDF8" fill-opacity="0.08"/>
  <circle cx="820" cy="440" r="350" fill="#FFFFFF" fill-opacity="0.04"/>

  <g opacity="0.92">
    <rect x="145" y="118" width="1310" height="664" rx="28" fill="url(#pitchGlow)" stroke="#D7FFF0" stroke-width="3"/>
    <rect x="215" y="170" width="1170" height="560" rx="20" stroke="#E6FFF8" stroke-opacity="0.75" stroke-width="3"/>
    <line x1="800" y1="170" x2="800" y2="730" stroke="#E6FFF8" stroke-opacity="0.68" stroke-width="3"/>
    <circle cx="800" cy="450" r="88" stroke="#E6FFF8" stroke-opacity="0.7" stroke-width="3"/>
    <circle cx="800" cy="450" r="5" fill="#E6FFF8"/>

    <rect x="215" y="292" width="174" height="316" rx="16" stroke="#E6FFF8" stroke-opacity="0.55" stroke-width="3"/>
    <rect x="1211" y="292" width="174" height="316" rx="16" stroke="#E6FFF8" stroke-opacity="0.55" stroke-width="3"/>

    <rect x="215" y="360" width="66" height="180" rx="12" stroke="#E6FFF8" stroke-opacity="0.45" stroke-width="3"/>
    <rect x="1319" y="360" width="66" height="180" rx="12" stroke="#E6FFF8" stroke-opacity="0.45" stroke-width="3"/>
  </g>

  <g filter="url(#softShadow)">
    <path d="M940 575C1012 528 1047 478 1064 430" stroke="#7DFFD2" stroke-width="12" stroke-linecap="round" stroke-dasharray="14 18"/>
    <path d="M756 600C700 552 662 500 632 446" stroke="#7DFFD2" stroke-width="12" stroke-linecap="round" stroke-dasharray="14 18"/>
    <path d="M826 578C843 514 853 466 852 410" stroke="#38BDF8" stroke-width="12" stroke-linecap="round" stroke-dasharray="14 18"/>

    <path d="M1062 429L1025 418L1040 456L1095 442L1062 429Z" fill="#7DFFD2"/>
    <path d="M634 445L673 447L651 411L599 432L634 445Z" fill="#7DFFD2"/>
    <path d="M852 408L828 437L868 441L890 391L852 408Z" fill="#38BDF8"/>
  </g>

  <g filter="url(#softShadow)">
    <circle cx="1050" cy="410" r="20" fill="#F8FAFC" fill-opacity="0.82"/>
    <circle cx="630" cy="450" r="18" fill="#F8FAFC" fill-opacity="0.72"/>
    <circle cx="845" cy="405" r="18" fill="#F8FAFC" fill-opacity="0.78"/>
    <circle cx="925" cy="540" r="20" fill="#2DD4BF"/>
    <circle cx="750" cy="570" r="20" fill="#2DD4BF"/>
  </g>

  <g transform="translate(695 262)" filter="url(#softShadow)">
    <circle cx="93" cy="84" r="42" fill="#F1C27D"/>
    <path d="M57 74C64 34 112 26 131 62C145 88 130 110 120 116C114 91 93 80 57 74Z" fill="#081C33"/>
    <path d="M65 130C94 118 124 120 148 141L178 282C159 299 135 310 104 312C74 314 48 306 30 292L65 130Z" fill="url(#playerKit)"/>
    <path d="M88 152L122 152L136 215L101 231L68 212L88 152Z" fill="url(#playerAccent)"/>
    <path d="M30 292L7 397L56 406L84 321L30 292Z" fill="#E2E8F0"/>
    <path d="M178 282L232 346L199 385L144 321L178 282Z" fill="#E2E8F0"/>
    <path d="M25 399C43 393 57 393 70 402L61 430L10 428L25 399Z" fill="#081C33"/>
    <path d="M196 383C216 377 231 380 244 392L238 423L187 414L196 383Z" fill="#081C33"/>
    <path d="M57 146L11 218L45 237L86 185L57 146Z" fill="#F1C27D"/>
    <path d="M147 146L212 198L188 231L121 182L147 146Z" fill="#F1C27D"/>
    <circle cx="255" cy="330" r="22" fill="#F8FAFC"/>
    <path d="M244 333L252 341L267 321" stroke="#2DD4BF" stroke-width="6" stroke-linecap="round" stroke-linejoin="round"/>
  </g>

  <g opacity="0.82">
    <rect x="180" y="94" width="286" height="132" rx="24" fill="#071626" fill-opacity="0.58"/>
    <text x="218" y="150" fill="#F8FAFC" font-family="Arial, Helvetica, sans-serif" font-size="40" font-weight="700">Defensive Shape</text>
    <text x="218" y="192" fill="#BFEDE4" font-family="Arial, Helvetica, sans-serif" font-size="24">Recovery runs and smart midfield positioning</text>
  </g>
</svg>
