<svg width="160" height="160" viewBox="0 0 160 160" fill="none" xmlns="http://www.w3.org/2000/svg">
<g id="icon-park-outline:mind-mapping">
<g id="Group" opacity="0.92">
<path id="Vector" d="M66.6665 26.6666C66.6665 30.2029 68.0713 33.5942 70.5718 36.0947C73.0722 38.5952 76.4636 40 79.9998 40C83.5361 40 86.9274 38.5952 89.4279 36.0947C91.9284 33.5942 93.3332 30.2029 93.3332 26.6666C93.3332 23.1304 91.9284 19.739 89.4279 17.2386C86.9274 14.7381 83.5361 13.3333 79.9998 13.3333C76.4636 13.3333 73.0722 14.7381 70.5718 17.2386C68.0713 19.739 66.6665 23.1304 66.6665 26.6666ZM133.333 140C133.333 141.768 134.036 143.464 135.286 144.714C136.536 145.964 138.232 146.667 140 146.667C141.768 146.667 143.464 145.964 144.714 144.714C145.964 143.464 146.666 141.768 146.666 140C146.666 138.232 145.964 136.536 144.714 135.286C143.464 134.036 141.768 133.333 140 133.333C138.232 133.333 136.536 134.036 135.286 135.286C134.036 136.536 133.333 138.232 133.333 140ZM73.3332 140C73.3332 141.768 74.0355 143.464 75.2858 144.714C76.536 145.964 78.2317 146.667 79.9998 146.667C81.7679 146.667 83.4636 145.964 84.7139 144.714C85.9641 143.464 86.6665 141.768 86.6665 140C86.6665 138.232 85.9641 136.536 84.7139 135.286C83.4636 134.036 81.7679 133.333 79.9998 133.333C78.2317 133.333 76.536 134.036 75.2858 135.286C74.0355 136.536 73.3332 138.232 73.3332 140ZM13.3332 140C13.3332 141.768 14.0355 143.464 15.2858 144.714C16.536 145.964 18.2317 146.667 19.9998 146.667C21.7679 146.667 23.4636 145.964 24.7139 144.714C25.9641 143.464 26.6665 141.768 26.6665 140C26.6665 138.232 25.9641 136.536 24.7139 135.286C23.4636 134.036 21.7679 133.333 19.9998 133.333C18.2317 133.333 16.536 134.036 15.2858 135.286C14.0355 136.536 13.3332 138.232 13.3332 140Z" stroke="#037D11" stroke-width="13.3333" stroke-linejoin="round"/>
<path id="Vector_2" d="M140 106.667L140 66.6667L20 66.6667L20 106.667M80 40L80 106.667" stroke="#037D11" stroke-width="13.3333" stroke-linecap="round" stroke-linejoin="round"/>
</g>
</g>
</svg>
